# xmcd
#
# Track frame offsets:
#	150
#	13017
#	45415
#	71145
#	91940
#	124730
#	155587
#	160432
#	192632
#	226677
#	243087
#	256947
#
# Disc length: 3785 seconds
#
# Revision: 0
# Processed by: cddbd v1.4PL0 Copyright (c) Steve Scherf et al.
# Submitted via: dBpowerAMP V4.0
#
DISCID=970ec70c
DTITLE=Face da Morte - Manifesto Popular Brasileiro
DYEAR=2000
DGENRE=Rap
TTITLE0=Fazendo Escola
TTITLE1=Julgamento
TTITLE2=Anos de Chumbo
TTITLE3=Churrrasco
TTITLE4=Caravana
TTITLE5=Mudar o Mundo
TTITLE6=Eu Sou Lavrador
TTITLE7=Caipira
TTITLE8=Janeiro/Fevereiro/Marco
TTITLE9=Abril/Maio/Junho
TTITLE10=Julho/Agosto/Setembro
TTITLE11=Outubro/Novembro/Dezembro
EXTD=
EXTT0=
EXTT1=
EXTT2=
EXTT3=
EXTT4=
EXTT5=
EXTT6=
EXTT7=
EXTT8=
EXTT9=
EXTT10=
EXTT11=
PLAYORDER=
